<?xml version="1.0" encoding="UTF-8"?>
<svg xmlns="http://www.w3.org/2000/svg" xmlns:xlink="http://www.w3.org/1999/xlink" viewBox="0 0 500 500" width="500px" height="500px">
<g id="surface77253779">
<path style=" stroke:none;fill-rule:nonzero;fill:rgb(92.54902%,94.117647%,94.509804%);fill-opacity:1;" d="M 250 30 C 183.632812 30 130 83.632812 130 150 L 130 200 L 90 200 C 73.007812 200 60 213.007812 60 230 L 60 470 C 60 486.992188 73.007812 500 90 500 L 410 500 C 426.992188 500 440 486.992188 440 470 L 440 230 C 440 213.007812 426.992188 200 410 200 L 370 200 L 370 150 C 370 83.632812 316.367188 30 250 30 Z M 250 50 C 305.664062 50 350 94.335938 350 150 L 350 200 L 150 200 L 150 150 C 150 94.335938 194.335938 50 250 50 Z M 250 300 C 266.992188 300 280 313.007812 280 330 C 280 338.984375 276.015625 346.875 270 351.875 L 270 380 C 270 391.015625 261.015625 400 250 400 C 238.984375 400 230 391.015625 230 380 L 230 351.875 C 223.984375 346.875 220 338.984375 220 330 C 220 313.007812 233.007812 300 250 300 Z M 250 300 "/>
</g>
</svg>
