<?xml version="1.0" standalone="no"?>
<!DOCTYPE svg PUBLIC "-//W3C//DTD SVG 20010904//EN"
 "http://www.w3.org/TR/2001/REC-SVG-20010904/DTD/svg10.dtd">
<svg version="1.0" xmlns="http://www.w3.org/2000/svg"
 width="1500.000000pt" height="1500.000000pt" viewBox="0 0 1500.000000 1500.000000"
 preserveAspectRatio="xMidYMid meet">
<metadata>
Created by potrace 1.16, written by Peter Selinger 2001-2019
</metadata>
<g transform="translate(0.000000,1500.000000) scale(0.100000,-0.100000)"
fill="#000000" stroke="none">
<path d="M7512 8949 l3 -724 214 -3 213 -2 -7 57 c-3 32 -20 135 -36 228 -16
94 -41 241 -56 327 l-26 156 31 48 c57 85 74 147 70 249 -3 74 -9 101 -34 155
-58 123 -187 216 -315 227 l-59 6 2 -724z"/>
<path d="M5612 4755 c-43 -19 -54 -53 -50 -152 4 -106 13 -116 111 -123 l72
-5 3 -42 c3 -40 1 -43 -22 -43 -21 0 -26 5 -26 25 0 24 -2 25 -70 25 l-70 0 0
-34 c0 -43 16 -85 38 -102 11 -9 53 -13 128 -14 152 0 158 5 162 132 5 126 -6
141 -110 148 l-73 5 0 45 c0 38 3 45 20 45 14 0 21 -8 23 -27 3 -28 4 -28 73
-28 l69 0 0 39 c0 60 -16 90 -55 106 -44 19 -179 19 -223 0z"/>
<path d="M6060 4764 c0 -5 -105 -417 -116 -456 -5 -16 3 -18 65 -18 l70 0 7
35 c6 35 6 35 60 35 47 0 54 -3 54 -19 0 -45 9 -51 82 -51 61 0 69 2 64 18 -3
9 -31 117 -62 240 l-57 222 -84 0 c-45 0 -83 -3 -83 -6z"/>
<path d="M6400 4530 l0 -240 70 0 70 0 0 90 0 90 70 0 70 0 0 45 0 45 -70 0
-70 0 0 55 0 55 80 0 80 0 0 50 0 50 -150 0 -150 0 0 -240z"/>
<path d="M6770 4530 l0 -240 150 0 150 0 0 50 0 50 -80 0 -80 0 0 45 0 45 65
0 65 0 0 50 0 50 -65 0 -65 0 0 45 0 45 75 0 75 0 0 50 0 50 -145 0 -145 0 0
-240z"/>
<path d="M7130 4530 l0 -240 145 0 145 0 0 50 0 50 -75 0 -75 0 0 190 0 190
-70 0 -70 0 0 -240z"/>
<path d="M7523 4756 c-47 -21 -56 -67 -51 -259 l3 -159 28 -24 c26 -22 36 -24
143 -24 109 0 116 1 139 25 25 24 25 26 25 209 0 180 -1 186 -24 213 -23 26
-28 28 -127 30 -75 3 -113 -1 -136 -11z m145 -228 l3 -138 -31 0 -30 0 0 133
c0 74 3 137 7 141 4 4 16 6 28 4 19 -3 20 -11 23 -140z"/>
<path d="M7953 4763 c-13 -2 -32 -16 -43 -30 -18 -24 -20 -40 -20 -210 0 -182
0 -184 25 -208 23 -24 30 -25 138 -25 149 0 159 7 165 109 l4 71 -71 0 -71 0
0 -45 c0 -41 -2 -45 -25 -45 l-25 0 0 145 0 145 25 0 c23 0 25 -4 25 -45 l0
-45 70 0 70 0 0 54 c0 75 -13 104 -55 121 -32 14 -157 19 -212 8z"/>
<path d="M8290 4530 l0 -240 70 0 70 0 0 108 1 107 25 -65 c13 -36 31 -84 40
-107 l16 -43 74 0 c41 0 74 2 74 4 0 2 -20 57 -45 122 l-46 117 46 114 c25 62
45 115 45 118 0 3 -33 5 -74 5 l-74 0 -40 -107 -41 -108 0 108 -1 107 -70 0
-70 0 0 -240z"/>
<path d="M8720 4530 l0 -240 150 0 150 0 0 50 0 50 -80 0 -80 0 0 45 0 45 65
0 65 0 0 50 0 50 -65 0 -65 0 0 45 0 45 80 0 80 0 0 50 0 50 -150 0 -150 0 0
-240z"/>
<path d="M9100 4531 l0 -241 140 0 c136 0 142 1 165 25 25 24 25 26 25 213 l0
189 -26 24 c-24 23 -34 24 -165 27 l-139 4 0 -241z"/>
</g>
</svg>
