<?xml version="1.0" encoding="UTF-8"?>
<svg xmlns="http://www.w3.org/2000/svg" xmlns:xlink="http://www.w3.org/1999/xlink" viewBox="0 0 500 500" width="500px" height="500px">
<g id="surface77490861">
<path style=" stroke:none;fill-rule:nonzero;fill:rgb(92.54902%,94.117647%,94.509804%);fill-opacity:1;" d="M 140 40 C 84.886719 40 40 84.886719 40 140 L 40 360 C 40 415.113281 84.886719 460 140 460 L 360 460 C 415.113281 460 460 415.113281 460 360 L 460 140 C 460 84.886719 415.113281 40 360 40 Z M 140 60 L 360 60 C 404.308594 60 440 95.691406 440 140 L 440 160 L 60 160 L 60 140 C 60 95.691406 95.691406 60 140 60 Z M 60 180 L 440 180 L 440 260 L 60 260 Z M 80 200 L 80 220 L 100 220 L 100 200 Z M 120 200 L 120 220 L 140 220 L 140 200 Z M 160 200 L 160 220 L 180 220 L 180 200 Z M 200 200 L 200 220 L 220 220 L 220 200 Z M 240 200 L 240 220 L 260 220 L 260 200 Z M 280 200 L 280 220 L 300 220 L 300 200 Z M 320 200 L 320 220 L 340 220 L 340 200 Z M 360 200 L 360 220 L 380 220 L 380 200 Z M 400 200 L 400 220 L 420 220 L 420 200 Z M 60 280 L 440 280 L 440 350 L 60 350 Z M 62.011719 370 L 437.988281 370 C 432.886719 409.324219 400.753906 440 360 440 L 140 440 C 99.246094 440 67.113281 409.324219 62.011719 370 Z M 62.011719 370 "/>
</g>
</svg>
