<?xml version="1.0" standalone="no"?>
<!DOCTYPE svg PUBLIC "-//W3C//DTD SVG 20010904//EN"
 "http://www.w3.org/TR/2001/REC-SVG-20010904/DTD/svg10.dtd">
<svg version="1.0" xmlns="http://www.w3.org/2000/svg"
 width="500.000000pt" height="500.000000pt" viewBox="0 0 500.000000 500.000000"
 preserveAspectRatio="xMidYMid meet">
<metadata>
Created by potrace 1.16, written by Peter Selinger 2001-2019
</metadata>
<g transform="translate(0.000000,500.000000) scale(0.100000,-0.100000)"
fill="#000000" stroke="none">
<path d="M2405 3446 c-90 -28 -156 -86 -197 -171 -23 -50 -28 -73 -28 -137 l0
-78 -85 0 -85 0 0 -80 0 -80 -103 0 c-103 0 -103 0 -125 30 -30 40 -89 56
-136 36 -79 -33 -97 -129 -37 -190 27 -27 39 -31 82 -31 47 0 54 3 84 38 l32
37 102 0 101 0 0 -125 0 -125 -36 0 c-29 0 -44 8 -75 40 -33 34 -45 40 -79 40
-118 0 -170 -124 -84 -200 55 -48 142 -35 175 27 10 19 21 23 56 23 l43 0 0
-80 0 -80 485 0 485 0 0 80 0 80 48 0 c42 0 50 -3 60 -25 29 -63 134 -72 185
-15 21 24 27 40 27 76 0 39 -5 51 -34 80 -29 29 -41 34 -82 34 -42 0 -51 -4
-86 -41 -33 -35 -43 -40 -76 -37 l-37 3 -3 123 -3 122 109 0 c105 0 109 -1
122 -25 14 -26 66 -55 100 -55 29 0 76 26 94 52 9 13 16 43 16 69 0 39 -5 53
-29 77 -53 53 -132 47 -178 -12 -20 -25 -24 -26 -127 -26 l-106 0 0 80 0 80
-365 0 -365 0 0 48 c0 112 52 202 143 248 106 54 247 15 310 -88 16 -25 31
-64 34 -87 6 -40 6 -41 45 -41 l40 0 -7 48 c-27 188 -229 315 -410 258z m495
-751 l0 -285 -180 0 -180 0 0 86 c0 81 2 87 26 107 59 46 65 125 12 178 -24
24 -38 29 -77 29 -114 0 -161 -124 -76 -199 35 -30 35 -31 35 -116 l0 -85
-182 2 -183 3 -3 283 -2 282 405 0 405 0 0 -285z"/>
<path d="M1560 2042 c0 -127 0 -128 28 -155 26 -25 34 -27 119 -27 87 0 93 1
112 26 19 24 21 40 21 155 l0 129 -40 0 -39 0 -3 -122 -3 -123 -55 0 -55 0 -3
123 -3 122 -39 0 -40 0 0 -128z"/>
<path d="M1920 2015 l0 -155 35 0 35 0 0 89 c0 50 4 92 9 95 5 3 33 -37 62
-89 52 -94 52 -95 91 -95 l38 0 0 155 0 155 -40 0 -39 0 -3 -86 -3 -87 -48 87
-49 86 -44 0 -44 0 0 -155z"/>
<path d="M2270 2015 l0 -155 110 0 110 0 0 30 0 30 -70 0 -70 0 0 125 0 125
-40 0 -40 0 0 -155z"/>
<path d="M2562 2147 c-20 -21 -22 -34 -22 -133 0 -103 2 -112 23 -132 20 -19
35 -22 112 -22 83 0 91 2 117 27 27 26 28 30 28 133 0 98 -2 108 -23 128 -21
19 -35 22 -118 22 -87 0 -97 -2 -117 -23z m173 -132 l0 -90 -55 0 -55 0 -3 93
-3 93 58 -3 58 -3 0 -90z"/>
<path d="M2901 2144 c-18 -23 -21 -41 -21 -128 0 -99 1 -103 28 -129 26 -25
35 -27 108 -27 71 0 83 3 102 23 13 14 22 36 22 55 0 30 -2 32 -34 32 -28 0
-35 -4 -38 -22 -3 -20 -9 -23 -53 -23 l-50 0 0 90 0 90 47 3 c42 3 47 1 50
-20 2 -19 10 -24 41 -26 36 -3 37 -2 37 31 0 59 -31 77 -132 77 -82 0 -88 -2
-107 -26z"/>
<path d="M3200 2015 l0 -155 40 0 40 0 0 49 c0 30 5 53 14 61 12 10 20 2 47
-45 35 -62 43 -68 88 -63 l30 3 -54 85 c-29 46 -51 89 -47 95 3 5 25 33 49 61
24 28 43 54 43 58 0 3 -18 6 -40 6 -36 0 -43 -4 -82 -57 l-43 -57 -3 57 -3 57
-39 0 -40 0 0 -155z"/>
</g>
</svg>
